PathFileType	4	(X/Y/Z)	C:/Users/opensim2020/Desktop/walking_exp_matlab/subject02_walking07_straight_03.trc	
DataRate	CameraRate	NumFrames	NumMarkers	Units	OrigDataRate	OrigDataStartFrame	OrigNumFrames	
100.00	100.00	5	50	mm	100.00	2043	203	
Frame#	Time	LFHD			RFHD			LBHD			RBHD			C7			T10			CLAV			STRN			RBAK			LSHO			LUPA			LELB			LFRM			LWRA			LWRB			LFIN			RSHO			RUPA			RELB			RFRM			RWRA			RWRB			RFIN			LASI			RASI			LPSI			RPSI			LTHI			LKNE			LTIB			LANK			LHEE			LTOE			RTHI			RKNE			RTIB			RANK			RHEE			RTOE			*39			*40			*41			*42			*43			*44			*45			*46			*47			*48			*49			
		X1	Y1	Z1	X2	Y2	Z2	X3	Y3	Z3	X4	Y4	Z4	X5	Y5	Z5	X6	Y6	Z6	X7	Y7	Z7	X8	Y8	Z8	X9	Y9	Z9	X10	Y10	Z10	X11	Y11	Z11	X12	Y12	Z12	X13	Y13	Z13	X14	Y14	Z14	X15	Y15	Z15	X16	Y16	Z16	X17	Y17	Z17	X18	Y18	Z18	X19	Y19	Z19	X20	Y20	Z20	X21	Y21	Z21	X22	Y22	Z22	X23	Y23	Z23	X24	Y24	Z24	X25	Y25	Z25	X26	Y26	Z26	X27	Y27	Z27	X28	Y28	Z28	X29	Y29	Z29	X30	Y30	Z30	X31	Y31	Z31	X32	Y32	Z32	X33	Y33	Z33	X34	Y34	Z34	X35	Y35	Z35	X36	Y36	Z36	X37	Y37	Z37	X38	Y38	Z38	X39	Y39	Z39	X40	Y40	Z40	X41	Y41	Z41	X42	Y42	Z42	X43	Y43	Z43	X44	Y44	Z44	X45	Y45	Z45	X46	Y46	Z46	X47	Y47	Z47	X48	Y48	Z48	X49	Y49	Z49	X50	Y50	Z50	

51	0.500	1307.25732	-392.17053	1764.63086	1450.32178	-384.37051	1746.17090	1299.98718	-491.77460	1651.99426	1441.42700	-495.91995	1628.54163	1364.48853	-517.33228	1522.85547	1372.33423	-563.43060	1250.93506	1361.66443	-374.76190	1464.14856	1382.29553	-318.35422	1292.57239	1432.05298	-573.48517	1353.95496	1187.56067	-433.85916	1495.43713	1105.14893	-424.46216	1292.61548	1092.78442	-408.82367	1152.31079	1083.28809	-374.33005	1024.30688	1121.90552	-299.12991	913.44281	1085.26233	-340.97607	906.33783	1081.60657	-308.06149	849.80811	1554.62659	-443.79346	1502.70166	1646.73181	-464.35257	1315.05872	1678.50854	-437.32379	1173.72351	1709.61853	-396.86096	1063.17859	1699.96484	-336.16876	939.66296	1735.26025	-381.03488	936.08881	1739.69128	-340.15408	874.69409	1262.67700	-320.55884	995.30792	1515.88354	-348.46765	978.70953	1316.44971	-537.74994	1036.42603	1429.01611	-554.32446	1029.92773	1200.23657	-370.28882	683.48010	1232.90759	-395.19205	479.94077	1237.60803	-443.35211	289.63232	1278.41321	-427.40656	67.62614	1329.69055	-461.71216	39.75343	1267.14978	-269.92871	32.62596	1599.00183	-404.58521	675.98297	1597.83862	-382.12802	478.84625	1587.91821	-517.64386	355.78513	1547.87793	-636.26642	205.93906	1481.40234	-677.10114	170.25388	1606.89636	-564.85870	74.79529	1398.86438	-507.98120	1793.19531	-3360.37109	2845.15015	1033.96301																											 
52	0.510	1306.16943	-384.09293	1765.26453	1449.29419	-376.14136	1746.76514	1298.97961	-483.36639	1652.47473	1440.44373	-487.52502	1628.97595	1363.02417	-508.94806	1523.62842	1370.49646	-555.43457	1251.75208	1360.71582	-366.47003	1464.66870	1381.20007	-310.37476	1292.93335	1429.98169	-565.55481	1354.69629	1186.55396	-424.52084	1496.64954	1102.93970	-412.05255	1294.43799	1089.74231	-393.23807	1154.50305	1080.56653	-355.16956	1027.76758	1120.17139	-276.67767	919.41156	1083.30945	-318.24979	910.66089	1080.02148	-282.99179	855.41302	1553.57922	-436.08167	1503.04517	1645.10352	-458.47485	1315.59290	1677.25317	-433.46899	1174.06946	1708.64099	-394.57541	1063.00342	1699.96851	-335.08057	938.72223	1734.87866	-380.24078	935.91229	1739.68799	-340.09036	874.05249	1260.92993	-313.93811	995.66705	1513.99023	-340.33304	979.93958	1316.13306	-530.75439	1036.73828	1429.07874	-546.45563	1030.79333	1200.12866	-366.83157	683.10376	1232.64465	-393.05530	479.92645	1237.30969	-442.29340	289.93347	1278.49158	-427.45483	67.70490	1329.74194	-461.76855	39.83901	1267.10925	-269.93207	32.56459	1598.71228	-392.46103	677.58600	1596.62305	-366.87234	480.51193	1585.88538	-499.39490	354.03818	1545.62488	-613.56458	200.87077	1479.13879	-652.69458	162.98022	1606.40649	-538.49176	72.97174	1398.11255	-499.78619	1793.77148	-3357.29175	2845.78638	1034.04712																											 
53	0.520	1305.39026	-375.84949	1765.82690	1448.45264	-367.89651	1747.24158	1298.11328	-475.05368	1652.89807	1439.51013	-479.12192	1629.31079	1361.69409	-500.52454	1524.35107	1368.87146	-547.51080	1252.48523	1359.82959	-358.21518	1465.12109	1380.09558	-302.42197	1293.20007	1428.06030	-557.79456	1355.47888	1185.64026	-415.26169	1497.80994	1100.81873	-399.94867	1296.46863	1086.69641	-378.21780	1156.88855	1078.24316	-335.63217	1031.09949	1118.63086	-254.35350	925.85382	1081.43774	-295.61298	915.33655	1078.64941	-258.62683	861.03760	1552.43262	-428.46002	1503.13062	1644.38281	-452.90845	1316.17334	1676.01550	-429.67365	1174.28174	1707.96667	-392.15448	1062.82800	1700.00879	-333.78000	938.24695	1734.37463	-379.30539	935.68860	1739.71948	-339.80716	873.58466	1259.08435	-307.50989	996.01154	1511.88770	-332.03046	980.96796	1316.11499	-523.78210	1036.86011	1429.46802	-538.57684	1031.65369	1200.17468	-363.81232	682.91498	1232.35718	-390.73965	479.82550	1236.96008	-440.74612	290.11450	1278.52344	-427.37708	67.70838	1329.96350	-461.28000	39.27974	1267.04187	-269.94736	32.47706	1598.01636	-380.19250	679.08112	1595.34180	-351.80536	482.06949	1583.99597	-480.83371	351.79022	1543.51978	-590.23138	195.25339	1477.01904	-627.92987	155.63214	1605.56812	-511.39163	70.61811	1397.28784	-491.61179	1794.10010	-3360.31958	2845.10718	1033.89185																											 
54	0.530	1304.49561	-367.67020	1766.24731	1447.65686	-359.60583	1747.63293	1297.28003	-466.66101	1653.26538	1438.70544	-470.74219	1629.56909	1360.42188	-492.15295	1524.91418	1367.49939	-539.66803	1253.10596	1359.02026	-350.00372	1465.44836	1378.95105	-294.50424	1293.38025	1425.95972	-550.03467	1355.83215	1184.79346	-406.13733	1498.85876	1098.97864	-387.79816	1298.41956	1083.84607	-363.21317	1159.29102	1075.83679	-317.04144	1034.62000	1117.11523	-232.72160	931.83698	1079.89246	-273.04459	919.98053	1077.64587	-234.58807	866.76886	1551.26538	-420.99927	1503.10486	1642.86328	-447.64932	1316.31519	1674.86035	-425.94321	1174.43188	1707.26025	-389.72379	1062.65247	1699.74255	-332.61234	937.43457	1733.88586	-378.30811	935.36664	1739.75171	-339.28806	872.94012	1257.07947	-301.39069	996.17682	1509.62756	-323.83127	981.72754	1316.37585	-516.90607	1036.91443	1430.13806	-530.74579	1032.48999	1200.00366	-360.22446	682.66949	1232.22290	-388.34769	479.72632	1236.84998	-438.86798	290.28101	1278.61853	-427.32211	67.77290	1329.93079	-461.35703	39.28896	1266.94287	-269.93362	32.38288	1597.68750	-368.64307	680.52722	1593.97168	-336.88400	483.48672	1582.27734	-462.02869	349.10684	1541.60144	-566.27728	189.13017	1475.03711	-602.96960	148.44319	1604.39746	-483.15390	67.95876	1396.52405	-483.37650	1794.33606	-3360.42603	2845.19092	1034.07361																											 
55	0.540	1303.95520	-359.33798	1766.60339	1446.97510	-351.32065	1747.87683	1296.25916	-459.00195	1653.70789	1437.68286	-462.53217	1629.67700	1359.28394	-483.72263	1525.42419	1366.33728	-531.75195	1253.56018	1358.43054	-341.72354	1465.75647	1377.94019	-286.59479	1293.50989	1424.51196	-542.19861	1356.55054	1184.05811	-397.08200	1499.76392	1097.07251	-375.92056	1300.37390	1081.23523	-348.05515	1161.69897	1073.62598	-298.00073	1038.40710	1115.50635	-211.21153	938.19067	1078.11890	-251.47177	924.89478	1076.47571	-211.11691	872.76337	1550.41101	-413.28934	1503.02551	1641.50720	-442.30469	1316.49951	1673.78711	-422.27008	1174.50867	1706.58960	-387.30032	1062.36255	1699.74597	-331.11697	936.73785	1733.36194	-377.19827	935.04932	1739.81750	-338.63205	872.49408	1254.99341	-295.30569	996.21686	1507.15308	-315.99527	982.05139	1316.80603	-510.09879	1036.96045	1430.99170	-523.02209	1033.39575	1199.78503	-356.28098	682.29700	1232.10693	-385.90686	479.70938	1236.84998	-437.50555	290.51825	1278.81311	-427.19226	67.86375	1330.08582	-461.26367	39.30276	1266.79712	-269.94470	32.34529	1597.20374	-357.27747	681.80280	1592.36902	-322.57938	484.53940	1580.93286	-442.97644	346.12982	1539.95813	-541.72107	182.66112	1473.55115	-576.64636	140.03702	1602.86157	-454.10883	65.09103	1395.92480	-475.18481	1794.56738	-3360.27930	2845.02856	1034.17749																											 
